<svg width="87" height="45" viewBox="0 0 87 45" fill="none" xmlns="http://www.w3.org/2000/svg">
<g clip-path="url(#clip0_2_130)">
<path d="M61.8446 39.9388C60.3747 39.9388 58.9402 39.2107 58.0989 37.87C56.7884 35.8011 57.4083 33.0574 59.4715 31.7433L66.157 27.5079C64.4834 27.0817 62.1368 26.7265 59.1615 26.7265C52.6266 26.7265 46.3838 27.9075 43.2403 29.7366L33.0483 35.6679C32.6232 35.9165 32.207 36.1474 31.8086 36.3783C25.8315 39.7435 18.8183 40.4449 12.5756 38.3051C6.9084 36.3605 5.45619 33.306 5.24367 31.0773C5.08428 29.4613 5.42963 26.4069 9.51176 24.0361L46.6583 2.42403C48.7747 1.1987 51.4843 1.91792 52.7063 4.04006C53.9371 6.16219 53.211 8.87924 51.0947 10.1046L16.5072 30.2249C20.0934 31.1306 24.0339 30.5712 27.4696 28.6356C27.8415 28.4313 28.2134 28.2182 28.5942 27.9963L38.7863 22.0649C43.3112 19.4367 50.9264 17.8562 59.1527 17.8562C66.8034 17.8562 75.5521 19.854 77.1725 25.4568C77.4913 26.5578 78.1731 30.3936 73.5863 33.2972L64.2 39.2463C63.465 39.708 62.6504 39.93 61.8357 39.93L61.8446 39.9388Z" fill="white"/>
<path d="M14.0721 13.2833C10.2644 13.2833 7.55481 10.4242 7.55481 6.64167C7.55481 2.64601 10.5655 0 14.0721 0C17.5786 0 20.5539 2.64601 20.5539 6.64167C20.5539 10.6373 17.5432 13.2833 14.0721 13.2833ZM14.0721 1.1543C11.2031 1.1543 8.9716 3.40963 8.9716 6.64167C8.9716 9.66062 10.9197 12.129 14.0721 12.129C16.9057 12.129 19.1371 9.89148 19.1371 6.64167C19.1371 3.39187 16.9145 1.1543 14.0721 1.1543ZM12.7615 10.442H11.5573V3.08998H14.3377C16.1087 3.08998 17.0119 3.71152 17.0119 5.20324C17.0119 6.53512 16.1973 7.08563 15.0992 7.20994L17.1536 10.442H15.7899L13.895 7.29874H12.7615V10.442ZM14.1075 6.26874C15.0107 6.26874 15.8076 6.17995 15.8076 5.11444C15.8076 4.22652 14.9398 4.11997 14.2137 4.11997H12.7615V6.26874H14.1075Z" fill="white"/>
<path d="M57.9396 45C52.3167 45 46.189 44.414 39.8666 43.1886C15.9759 38.5359 -1.84028 26.3536 0.152091 16.027C0.807358 12.644 3.50812 9.74053 7.95331 7.64503L8.52003 8.8526C4.47331 10.7616 2.02934 13.3366 1.46262 16.2845C-0.396916 25.883 16.95 37.3638 40.1234 41.8834C63.3057 46.394 83.6809 42.2563 85.5405 32.649C86.4171 28.1028 82.9548 22.944 75.7912 18.1137C68.4593 13.1768 58.1875 9.24329 46.8709 7.04124C37.2367 5.16772 27.9035 4.73264 19.8809 5.78039L19.7038 4.45738C27.8593 3.38299 37.3429 3.82695 47.1188 5.72711C58.6037 7.96468 69.0525 11.9692 76.5261 16.9949C84.168 22.1359 87.8251 27.7831 86.8422 32.8887C85.3722 40.4805 73.5774 44.9911 57.9396 44.9911V45Z" fill="white"/>
</g>
<defs>
<clipPath id="clip0_2_130">
<rect width="87" height="45" fill="white"/>
</clipPath>
</defs>
</svg>
